<?xml version="1.0" standalone="no"?>
<!DOCTYPE svg PUBLIC "-//W3C//DTD SVG 20010904//EN"
 "http://www.w3.org/TR/2001/REC-SVG-20010904/DTD/svg10.dtd">
<svg version="1.0" xmlns="http://www.w3.org/2000/svg"
 width="1280.000000pt" height="1280.000000pt" viewBox="0 0 1280.000000 1280.000000"
 preserveAspectRatio="xMidYMid meet">
<metadata>
Created by potrace 1.15, written by Peter Selinger 2001-2017
</metadata>
<g transform="translate(0.000000,1280.000000) scale(0.100000,-0.100000)"
fill="#000000" stroke="none">
<path d="M6095 12794 c-38 -2 -151 -11 -250 -19 -2714 -232 -4991 -2175 -5654
-4823 -77 -305 -134 -644 -168 -997 -24 -253 -24 -857 0 -1110 81 -836 282
-1553 638 -2276 933 -1892 2744 -3206 4829 -3503 340 -49 508 -60 910 -60 501
0 817 31 1280 124 2515 507 4508 2511 4999 5030 86 440 115 756 115 1240 0
402 -11 570 -60 910 -197 1375 -826 2630 -1810 3614 -1068 1068 -2441 1710
-3959 1851 -162 15 -716 27 -870 19z m555 -474 c707 -34 1323 -166 1965 -422
161 -65 641 -295 689 -331 18 -13 10 -30 -168 -345 -200 -355 -207 -372 -155
-401 24 -13 29 -13 50 1 14 9 100 150 202 329 97 173 181 321 186 328 8 12 25
5 98 -39 596 -361 1192 -907 1631 -1494 163 -219 369 -537 358 -554 -3 -5
-148 -90 -322 -188 -187 -105 -323 -188 -332 -202 -14 -22 -14 -27 -1 -51 29
-52 47 -45 391 150 178 100 326 184 330 186 10 5 236 -451 302 -612 602 -1466
602 -3088 0 -4550 -62 -149 -266 -569 -281 -578 -6 -4 -126 63 -268 148 -354
211 -339 203 -373 185 -30 -17 -39 -48 -23 -79 6 -10 39 -35 74 -54 35 -20
165 -104 290 -186 l227 -151 -41 -67 c-474 -763 -1042 -1363 -1749 -1845 -144
-98 -298 -193 -304 -187 -2 2 -93 168 -201 369 -108 201 -202 371 -210 379
-17 17 -60 18 -80 1 -8 -7 -15 -24 -15 -38 0 -14 91 -194 202 -400 192 -358
200 -376 182 -389 -48 -36 -528 -266 -689 -331 -1452 -579 -3048 -570 -4490
24 -142 59 -556 260 -586 285 -15 13 4 52 192 399 225 415 232 432 176 458
-24 12 -31 11 -50 -1 -13 -8 -110 -177 -226 -393 -112 -209 -206 -382 -210
-387 -8 -8 -208 112 -366 221 -607 418 -1133 944 -1547 1547 -91 133 -212 325
-207 329 2 2 159 90 348 197 199 113 350 204 359 218 14 21 14 26 1 50 -29 52
-46 46 -415 -163 -191 -108 -350 -196 -355 -196 -12 0 -250 482 -313 635 -603
1468 -603 3082 0 4550 63 153 301 635 313 635 5 0 164 -88 355 -196 369 -209
386 -215 415 -163 13 24 13 29 -1 50 -9 14 -160 105 -359 218 -189 107 -346
195 -348 197 -5 4 116 196 207 329 414 603 940 1129 1547 1547 158 109 358
229 366 221 4 -5 91 -158 195 -342 112 -199 198 -339 212 -349 22 -14 27 -14
51 -1 53 30 45 49 -163 414 -175 307 -192 341 -177 354 30 25 445 226 586 285
634 261 1314 413 1985 445 257 12 304 12 540 1z"/>
<path d="M6390 12240 c-20 -20 -20 -31 -18 -397 l3 -376 28 -20 27 -21 28 21
27 20 3 376 c2 366 2 377 -18 397 -11 11 -29 20 -40 20 -11 0 -29 -9 -40 -20z"/>
<path d="M6390 8688 c0 -73 -4 -254 -10 -403 -5 -148 -14 -439 -20 -645 -7
-206 -17 -544 -23 -750 l-12 -375 -140 0 -140 0 0 -115 0 -115 138 4 138 3 -3
-113 -3 -114 85 0 85 0 -3 111 -3 112 123 6 c68 3 512 15 988 26 887 21 1374
33 2050 50 212 5 541 13 733 17 191 3 347 9 347 13 0 4 -156 10 -347 13 -192
4 -521 12 -733 17 -652 17 -1161 29 -2050 50 -470 11 -914 23 -986 26 l-130 6
-12 426 c-13 432 -24 794 -42 1335 -6 163 -10 353 -10 422 0 77 -4 125 -10
125 -6 0 -10 -51 -10 -132z"/>
<path d="M530 6440 c-11 -11 -20 -29 -20 -40 0 -11 9 -29 20 -40 19 -19 33
-20 390 -20 l371 0 25 25 c19 19 23 31 18 48 -15 46 -18 46 -411 47 -360 0
-374 -1 -393 -20z"/>
<path d="M11484 6435 c-19 -19 -23 -31 -18 -48 15 -46 18 -46 412 -47 359 0
373 1 392 20 11 11 20 29 20 40 0 11 -9 29 -20 40 -19 19 -33 20 -390 20
l-371 0 -25 -25z"/>
<path d="M6410 1363 c-38 -15 -39 -28 -40 -408 0 -320 2 -374 16 -393 19 -28
57 -29 84 -2 19 19 20 33 20 390 l0 371 -25 24 c-25 26 -30 27 -55 18z"/>
</g>
</svg>
