<svg width="200" height="200" viewBox="0 0 200 200" fill="none" xmlns="http://www.w3.org/2000/svg">
<path d="M166.667 33.3334H150V25.0001H170.833C173.167 25.0001 175 26.8334 175 29.1667V45.8334C175 48.1667 173.167 50.0001 170.833 50.0001H166.667V58.3334H158.333V41.6667H166.667V33.3334ZM158.333 75.0001H166.667V66.6668H158.333V75.0001ZM141.667 25.0001H133.333V58.3334H141.667V25.0001ZM191.667 125V150C191.667 154.583 187.917 158.333 183.333 158.333H175V166.667C175 175.917 167.583 183.333 158.333 183.333H41.6667C37.2464 183.333 33.0072 181.577 29.8816 178.452C26.756 175.326 25 171.087 25 166.667V158.333H16.6667C12.0834 158.333 8.33337 154.583 8.33337 150V125C8.33337 120.417 12.0834 116.667 16.6667 116.667H25C25 84.4168 51.0834 58.3334 83.3334 58.3334H91.6667V47.7501C86.6667 44.9168 83.3334 39.5001 83.3334 33.3334C83.3334 24.1667 90.8334 16.6667 100 16.6667C109.167 16.6667 116.667 24.1667 116.667 33.3334C116.667 39.5001 113.333 44.9168 108.333 47.7501V58.3334H116.667C119.5 58.3334 122.25 58.5834 125 59.0001V83.3334H164.5C171.354 93.0959 175.021 104.739 175 116.667H183.333C187.917 116.667 191.667 120.417 191.667 125ZM83.3334 129.167C83.3334 123.641 81.1384 118.342 77.2314 114.435C73.3244 110.528 68.0254 108.333 62.5 108.333C56.9747 108.333 51.6757 110.528 47.7686 114.435C43.8616 118.342 41.6667 123.641 41.6667 129.167C41.6667 134.692 43.8616 139.991 47.7686 143.898C51.6757 147.805 56.9747 150 62.5 150C68.0254 150 73.3244 147.805 77.2314 143.898C81.1384 139.991 83.3334 134.692 83.3334 129.167ZM158.333 129.167C158.333 123.641 156.138 118.342 152.231 114.435C148.324 110.528 143.025 108.333 137.5 108.333C131.975 108.333 126.676 110.528 122.769 114.435C118.862 118.342 116.667 123.641 116.667 129.167C116.667 134.692 118.862 139.991 122.769 143.898C126.676 147.805 131.975 150 137.5 150C143.025 150 148.324 147.805 152.231 143.898C156.138 139.991 158.333 134.692 158.333 129.167ZM141.667 66.6668H133.333V75.0001H141.667V66.6668Z" fill="#3F3534"/>
</svg>
